<?xml version="1.0" standalone="no"?>
<!DOCTYPE svg PUBLIC "-//W3C//DTD SVG 20010904//EN"
 "http://www.w3.org/TR/2001/REC-SVG-20010904/DTD/svg10.dtd">
<svg version="1.0" xmlns="http://www.w3.org/2000/svg"
 width="790.000000pt" height="788.000000pt" viewBox="0 0 790.000000 788.000000"
 preserveAspectRatio="xMidYMid meet">

<g transform="translate(0.000000,788.000000) scale(0.100000,-0.100000)"
fill="#000000" stroke="none">
<path d="M3585 7345 c-64 -162 -158 -345 -213 -412 -24 -30 -97 -96 -162 -148
-180 -143 -234 -223 -232 -340 2 -83 19 -285 25 -291 7 -7 100 41 180 93 38
25 70 43 72 41 9 -9 -162 -174 -251 -240 -55 -42 -131 -109 -168 -150 -64 -69
-66 -71 -50 -33 37 89 68 231 52 242 -14 8 -160 -140 -213 -217 -36 -53 -49
-84 -69 -171 -26 -110 -44 -165 -51 -158 -4 4 36 195 51 247 11 39 -13 24 -58
-35 -24 -32 -75 -82 -113 -111 -111 -84 -173 -147 -185 -189 -7 -21 -15 -94
-19 -163 -8 -138 -29 -200 -83 -245 l-27 -23 46 -47 c25 -26 59 -78 77 -114
26 -56 32 -81 36 -166 l5 -100 93 104 c50 58 103 127 117 155 24 47 25 59 25
214 l0 163 53 53 c28 29 88 76 132 106 279 187 526 414 671 616 141 198 176
277 256 576 l33 123 -1 270 c-1 265 -12 393 -29 350z m-315 -798 c0 -27 -36
-109 -56 -128 l-26 -24 -19 24 c-23 29 -24 50 -1 77 24 30 102 69 102 51z"/>
<path d="M4218 7354 c-14 -22 -42 -321 -42 -439 0 -122 3 -142 52 -341 59
-244 77 -294 155 -422 163 -267 365 -467 723 -712 157 -108 219 -165 228 -211
3 -17 6 -92 6 -166 0 -132 1 -137 31 -193 28 -54 186 -241 209 -248 6 -2 6 7
-1 25 -6 15 -12 60 -12 98 -2 92 23 145 107 231 l65 67 -41 46 c-65 74 -72 94
-69 199 1 64 -3 109 -14 141 -19 57 -83 127 -151 166 -139 79 -174 101 -174
112 0 8 12 10 37 6 l37 -6 -84 99 c-46 54 -99 116 -119 138 -51 54 -199 168
-210 162 -12 -8 17 -117 57 -220 17 -44 30 -81 28 -83 -1 -1 -34 34 -72 78
-38 45 -109 112 -159 151 -94 72 -268 238 -260 246 2 3 10 0 17 -6 22 -18 231
-142 234 -139 2 1 11 71 20 154 31 264 17 290 -279 531 -42 34 -93 84 -112
110 -46 61 -126 223 -168 341 -19 52 -36 90 -39 85z m411 -827 c22 -27 41 -56
42 -65 2 -37 -3 -87 -10 -95 -9 -9 -87 81 -100 116 -9 22 -7 46 5 85 6 20 16
13 63 -41z"/>
<path d="M3897 7205 c-4 -22 -11 -89 -17 -150 -29 -304 -52 -413 -123 -591
-25 -60 -173 -363 -329 -674 -402 -798 -494 -974 -555 -1068 l-53 -83 38 -47
c22 -26 114 -159 206 -295 228 -340 358 -528 429 -620 95 -123 294 -440 382
-608 l52 -100 32 62 c17 34 52 94 77 133 388 611 515 812 699 1099 101 158
198 306 216 328 29 37 31 43 19 63 -16 24 -315 609 -393 768 -28 59 -54 107
-57 107 -3 1 -3 -43 -1 -96 2 -55 -4 -162 -14 -244 l-18 -146 22 -69 c29 -91
82 -184 126 -223 30 -26 94 -52 158 -63 32 -5 18 -23 -20 -26 -51 -4 -130 -30
-173 -58 -88 -56 -176 -185 -308 -453 -31 -63 -58 -109 -60 -103 -6 19 37 180
79 292 23 61 39 113 37 115 -3 3 -46 -18 -97 -46 -50 -29 -94 -49 -97 -47 -3
3 26 27 63 54 96 68 187 149 249 221 l52 62 -165 328 c-91 180 -213 418 -272
528 -58 110 -119 228 -136 262 -16 35 -32 63 -35 62 -3 0 -21 -34 -40 -77 -19
-42 -69 -142 -111 -222 -217 -418 -283 -548 -343 -680 -37 -80 -75 -161 -86
-181 l-19 -36 107 -104 c59 -58 147 -132 196 -164 122 -82 145 -113 191 -247
21 -62 51 -146 67 -186 15 -40 28 -78 27 -85 -1 -26 -91 168 -125 270 -20 59
-45 119 -57 132 -25 28 -211 151 -228 151 -6 0 5 -28 24 -63 77 -137 112 -254
132 -440 l14 -138 65 -117 c35 -64 93 -174 128 -244 35 -71 67 -128 71 -128 4
0 10 8 13 18 28 84 109 235 206 385 81 123 108 155 108 128 0 -9 -67 -149
-109 -231 -44 -84 -103 -191 -145 -265 -26 -44 -49 -88 -52 -98 -4 -14 -9 -16
-20 -6 -8 6 -14 15 -14 19 0 7 -54 102 -142 250 -24 41 -64 112 -87 158 -44
84 -61 100 -61 58 0 -33 -17 -76 -30 -76 -6 0 -10 25 -10 59 0 89 -19 311 -31
356 -13 48 -94 211 -145 292 -61 94 -152 210 -187 236 -37 29 -108 47 -191 50
-80 3 -82 21 -4 37 35 7 91 24 125 37 52 21 67 32 91 71 42 67 102 179 102
189 0 4 -23 21 -50 37 -55 33 -137 112 -127 122 12 12 107 -18 163 -52 31 -19
58 -34 59 -34 1 0 8 15 16 33 7 17 108 223 224 457 116 234 220 445 230 470
14 35 20 86 25 228 11 285 43 264 56 -37 l7 -164 217 -436 c119 -240 220 -448
224 -463 3 -16 10 -28 14 -28 19 0 55 207 59 342 l5 137 -163 318 c-326 638
-337 668 -364 1035 -9 114 -19 226 -24 250 l-7 43 -7 -40z"/>
<path d="M2695 6316 c-61 -57 -178 -146 -300 -231 -288 -198 -411 -293 -504
-390 -138 -144 -167 -205 -207 -434 -28 -163 -59 -263 -101 -325 -15 -22 -88
-102 -161 -177 l-133 -137 100 -97 c177 -171 293 -254 498 -355 148 -73 194
-100 240 -145 32 -30 55 -55 51 -55 -3 0 -26 11 -51 26 -37 20 -297 104 -323
104 -4 0 -4 -71 -1 -157 6 -174 24 -256 71 -338 65 -111 115 -145 317 -221
240 -90 277 -119 447 -351 64 -87 159 -177 241 -229 34 -22 103 -65 153 -97
l91 -58 -7 83 c-4 46 -9 102 -12 126 -4 28 -2 42 5 42 6 0 11 -6 11 -12 0 -7
6 -25 14 -39 7 -15 25 -62 40 -106 38 -115 79 -168 200 -262 58 -44 108 -81
111 -81 6 0 5 16 -20 191 -14 98 -37 185 -65 241 -9 18 -6 17 14 -7 69 -81
140 -277 164 -452 11 -81 23 -106 103 -224 54 -80 129 -220 159 -297 24 -62
27 -11 14 223 -7 127 -13 325 -14 440 l0 210 -171 185 c-93 102 -231 261 -305
353 -187 231 -228 273 -394 406 -176 140 -349 307 -522 504 -119 135 -135 150
-201 181 -40 19 -124 48 -187 66 -180 50 -213 61 -250 83 -49 29 -90 68 -90
87 0 18 42 61 78 79 25 13 41 0 133 -106 35 -40 39 -42 70 -33 19 6 53 10 77
10 37 0 44 3 53 28 6 15 12 68 13 117 1 83 -1 95 -29 145 -37 67 -139 178
-171 186 -23 6 -35 34 -14 34 5 0 36 26 68 58 64 63 82 106 82 204 0 29 5 85
10 123 13 86 53 150 154 245 206 194 255 242 320 320 98 117 192 264 221 344
13 36 21 66 17 66 -4 0 -52 -42 -107 -94z m-404 -2527 c263 -87 477 -182 505
-224 9 -14 12 -33 9 -48 -7 -27 32 -136 70 -197 32 -51 99 -109 190 -165 124
-76 210 -142 255 -192 58 -66 49 -73 -17 -13 -42 38 -98 72 -217 130 -248 120
-282 152 -337 317 -49 150 -104 197 -381 330 -116 56 -144 73 -119 73 4 0 23
-5 42 -11z m9 -209 c97 -29 256 -127 238 -146 -7 -6 -244 120 -279 148 -20 17
-21 19 -4 13 11 -4 31 -11 45 -15z"/>
<path d="M5007 6353 c8 -32 27 -78 41 -103 57 -96 233 -303 414 -485 103 -104
196 -203 206 -220 31 -50 42 -93 58 -223 8 -69 22 -138 30 -153 8 -16 39 -52
69 -81 30 -29 55 -55 55 -59 0 -3 -22 -20 -49 -37 -102 -66 -162 -165 -168
-277 -3 -42 1 -88 9 -114 13 -43 15 -44 78 -62 77 -21 84 -18 143 59 58 75 84
89 125 68 33 -17 72 -61 72 -81 0 -19 -58 -65 -115 -91 -27 -13 -104 -37 -170
-54 -225 -57 -286 -99 -450 -305 -101 -127 -223 -249 -400 -400 -191 -163
-287 -263 -410 -425 -58 -76 -170 -208 -250 -294 -79 -87 -169 -185 -200 -220
l-55 -63 0 -214 c0 -118 -7 -290 -15 -384 -16 -189 -19 -305 -7 -305 4 0 27
46 52 102 24 56 73 144 108 197 83 123 109 180 122 266 31 211 138 459 249
579 25 27 116 95 202 151 86 57 168 118 183 136 37 43 70 116 97 209 37 128
101 173 374 266 99 34 189 64 200 69 14 5 11 -1 -10 -19 -16 -15 -107 -65
-201 -111 -218 -107 -246 -137 -319 -338 -44 -122 -118 -187 -288 -253 -270
-104 -359 -230 -402 -569 -7 -55 -9 -104 -5 -108 8 -9 138 91 206 160 28 28
61 81 100 162 32 67 62 121 66 121 5 0 6 -10 2 -22 -32 -102 -41 -162 -25
-173 5 -3 38 14 73 38 35 24 103 66 152 93 112 62 169 116 282 274 144 201
192 240 379 305 120 41 194 83 255 145 111 110 160 254 160 466 0 107 -1 116
-17 109 -10 -4 -76 -21 -148 -37 -71 -16 -145 -36 -164 -44 -19 -8 -36 -12
-38 -10 -12 12 103 84 254 159 213 105 303 170 488 346 44 42 93 86 108 98
l28 22 -104 108 c-127 131 -168 180 -219 257 -44 68 -57 109 -93 282 -14 69
-35 148 -46 176 -69 175 -280 370 -719 663 -118 79 -190 136 -262 207 -55 54
-101 98 -103 98 -2 0 4 -26 12 -57z m563 -2791 c0 -10 -112 -66 -172 -88 -23
-8 -62 -26 -87 -39 -24 -14 -46 -23 -49 -20 -17 17 82 72 227 126 90 33 81 31
81 21z"/>
<path d="M6243 5289 c17 -134 86 -273 207 -418 66 -80 231 -241 246 -241 6 0
17 -6 23 -14 9 -10 6 -17 -12 -29 -13 -8 -96 -85 -185 -170 -157 -150 -282
-258 -339 -292 l-28 -16 3 -161 c6 -253 -35 -431 -133 -578 -69 -104 -153
-154 -334 -198 -38 -9 -39 -10 -71 -107 -23 -69 -58 -136 -102 -196 -13 -17
-79 -72 -148 -121 -69 -50 -135 -100 -147 -111 -31 -27 -38 -17 -13 16 29 37
87 164 96 211 9 49 8 49 -133 -45 -217 -145 -301 -217 -338 -290 -29 -57 -64
-225 -71 -339 -3 -47 -7 -100 -9 -117 -2 -18 0 -33 4 -33 5 0 35 25 67 55 77
71 160 127 314 211 319 172 612 357 742 468 90 77 231 232 310 343 119 165
180 315 238 583 63 292 67 298 436 668 235 236 260 264 240 272 -255 99 -364
162 -538 312 -68 59 -206 216 -266 301 -61 87 -66 90 -59 36z"/>
<path d="M1546 5288 c-68 -115 -213 -281 -331 -378 -112 -91 -181 -131 -353
-204 -89 -37 -162 -71 -162 -75 0 -3 46 -48 103 -98 231 -208 500 -500 543
-590 13 -29 38 -117 55 -196 16 -78 39 -173 50 -212 30 -102 128 -298 196
-390 80 -108 243 -286 336 -366 129 -112 337 -255 524 -360 98 -56 221 -125
273 -155 119 -67 202 -124 279 -192 l60 -53 -5 78 c-20 303 -58 419 -177 529
-107 101 -376 279 -393 261 -14 -13 25 -107 82 -200 30 -48 54 -90 54 -94 0
-4 -15 7 -32 24 -18 17 -80 65 -139 106 -58 42 -124 97 -148 122 -49 53 -105
167 -122 247 -14 65 -21 74 -62 82 -17 3 -77 28 -132 55 -137 68 -209 134
-268 248 -81 158 -90 200 -93 428 l-3 200 -99 77 c-55 42 -152 125 -216 185
-140 129 -236 213 -262 230 -18 12 -18 13 -1 24 36 22 163 134 235 207 128
131 180 221 212 370 25 115 23 138 -4 90z"/>
<path d="M5168 4663 c-59 -40 -92 -121 -77 -191 13 -65 76 -107 147 -99 111
12 174 129 120 222 -38 66 -139 102 -190 68z"/>
<path d="M2520 4663 c-39 -12 -59 -28 -80 -65 -18 -32 -21 -51 -18 -96 6 -70
40 -104 121 -122 50 -12 59 -11 93 7 56 29 79 65 78 122 0 54 -25 104 -64 131
-25 18 -102 32 -130 23z"/>
<path d="M1246 3519 c-34 -96 -96 -338 -96 -375 0 -35 78 -101 176 -150 102
-51 112 -59 176 -160 47 -73 83 -107 153 -142 64 -32 288 -113 302 -110 8 2
-11 24 -44 52 -111 93 -195 178 -260 264 -36 48 -112 134 -168 193 -84 86
-110 120 -143 190 -23 46 -50 120 -61 163 -22 85 -28 97 -35 75z"/>
<path d="M6608 3510 c-3 -8 -15 -55 -27 -105 -29 -122 -71 -205 -128 -252
-107 -89 -146 -130 -204 -216 -76 -111 -176 -217 -287 -304 -46 -36 -81 -68
-78 -71 7 -7 99 23 221 70 189 75 216 94 280 200 54 90 69 103 159 148 91 45
123 70 159 127 l25 39 -23 89 c-33 126 -92 293 -97 275z"/>
<path d="M6700 2774 c-125 -112 -262 -185 -586 -314 -252 -101 -821 -343 -949
-404 -180 -87 -524 -296 -525 -319 0 -5 21 -5 48 -1 79 13 289 8 442 -11 80
-9 188 -18 241 -19 94 -1 98 0 135 30 63 50 392 267 494 326 145 83 630 325
630 313 0 -2 -37 -27 -82 -55 -133 -84 -248 -174 -245 -190 2 -11 27 -18 102
-26 55 -7 129 -17 164 -23 60 -12 66 -11 115 13 85 42 217 139 337 249 102 94
179 176 179 191 0 3 -89 72 -197 152 -109 81 -199 151 -201 155 -6 16 -15 9
-102 -67z m128 -236 c17 -17 15 -38 -5 -60 -21 -24 -40 -23 -53 3 -9 16 -8 26
5 45 17 26 35 30 53 12z"/>
<path d="M990 2774 c-47 -36 -140 -104 -207 -151 -68 -47 -123 -88 -123 -92 0
-13 234 -240 305 -297 39 -30 106 -78 150 -105 77 -49 82 -50 135 -44 30 3
123 10 205 15 83 4 154 9 160 9 23 2 -116 117 -221 182 -63 39 -114 73 -114
74 0 6 218 -96 345 -160 119 -61 417 -253 610 -394 153 -112 158 -114 279
-106 55 3 157 13 226 22 129 16 408 21 470 9 l35 -7 -24 21 c-44 38 -444 272
-556 326 -242 116 -554 252 -820 359 -417 167 -566 243 -697 356 -31 27 -60
49 -65 48 -4 0 -46 -30 -93 -65z m93 -236 c17 -23 19 -33 11 -55 -14 -40 -64
-44 -92 -8 -22 27 -20 47 6 78 21 24 51 18 75 -15z"/>
<path d="M3140 2493 c0 -5 14 -49 30 -98 17 -49 43 -160 60 -247 16 -87 34
-167 39 -176 16 -31 141 -143 251 -226 58 -44 120 -93 137 -109 18 -17 35 -28
38 -25 3 3 -4 26 -15 53 -41 96 -82 223 -111 345 -16 69 -36 145 -44 171 -20
60 -81 118 -225 213 -63 42 -125 83 -137 92 -13 9 -23 12 -23 7z"/>
<path d="M4680 2471 c-14 -11 -52 -36 -85 -57 -184 -116 -231 -178 -285 -374
-42 -154 -64 -218 -116 -329 -24 -52 -42 -96 -40 -99 6 -5 11 -1 202 148 87
69 179 145 204 170 52 52 59 71 115 345 19 94 38 180 41 193 8 26 -2 27 -36 3z"/>
<path d="M1438 2083 c-108 -3 -118 -5 -118 -23 0 -19 76 -83 222 -189 34 -25
57 -46 51 -48 -6 -2 -47 8 -90 22 -67 21 -130 54 -189 99 -8 7 -35 -1 -81 -21
-71 -33 -130 -42 -291 -45 -50 -2 -81 -6 -79 -12 7 -21 129 -96 179 -111 32
-9 92 -15 157 -15 58 0 171 -7 251 -15 80 -8 184 -18 232 -21 91 -7 468 14
468 26 0 4 -28 25 -62 47 -35 22 -124 88 -198 147 -208 163 -217 166 -452 159z"/>
<path d="M6245 2076 c-90 -19 -132 -42 -354 -195 -111 -77 -212 -143 -222
-146 -27 -9 -24 -29 3 -21 13 3 88 1 168 -4 236 -15 348 -14 480 3 69 9 193
21 275 26 168 11 216 23 320 84 l70 42 -75 7 c-144 14 -233 30 -284 49 l-50
20 -60 -31 c-69 -36 -225 -94 -233 -86 -3 3 26 25 63 49 79 51 204 162 204
182 0 26 -214 41 -305 21z"/>
<path d="M2865 1462 c36 -37 248 -172 340 -217 130 -64 247 -116 252 -112 4 5
-53 144 -76 183 -10 17 -26 43 -36 57 -26 40 -7 33 66 -27 105 -84 266 -141
343 -122 14 3 42 23 61 44 43 43 108 155 103 176 -2 13 -54 16 -328 20 -179 3
-419 9 -535 12 l-210 6 20 -20z"/>
<path d="M4600 1469 c-129 -3 -331 -7 -447 -8 -140 -1 -213 -5 -213 -11 0 -36
88 -170 135 -206 l35 -27 112 37 c145 48 177 66 227 122 45 51 55 40 22 -24
-22 -45 -58 -153 -67 -205 l-6 -38 53 34 c30 18 94 55 143 81 49 26 119 66
155 90 131 87 216 148 219 157 2 5 -26 8 -65 7 -37 -1 -174 -5 -303 -9z"/>
<path d="M4280 1241 c-41 -16 -96 -36 -121 -45 -37 -13 -60 -34 -125 -111 -43
-53 -80 -100 -82 -105 -7 -19 -27 -10 -39 18 -7 15 -44 61 -82 103 l-69 75
-80 17 c-44 10 -108 29 -142 43 -34 14 -63 24 -65 22 -1 -2 21 -57 49 -123 59
-138 91 -187 246 -380 61 -77 121 -157 133 -177 12 -21 24 -38 27 -37 11 2
300 397 324 444 14 28 39 86 55 130 16 44 36 97 45 118 9 20 13 37 9 37 -5 -1
-42 -14 -83 -29z"/>
</g>
</svg>
